<svg id="Layer_1" data-name="Layer 1" xmlns="http://www.w3.org/2000/svg" viewBox="0 0 148.31 58.54"><defs><style>.cls-1{fill:#fff;}.cls-2{fill:#231f20;}</style></defs><title>Breakfast Time Logo - Stack</title><path class="cls-1" d="M487.6,294.65a7,7,0,0,1-6.63-4.76c-.84-2.22-.59-4.75-.28-7.07h-.41a3.44,3.44,0,0,1-1.8-.36,3,3,0,0,1-1-3.36,3.28,3.28,0,0,1,3.3-2.45l.39,0c.83-4.74,4.15-5.13,5.21-5.13,2.21,0,4.37,1.33,4.8,3a4.11,4.11,0,0,1-.12,2.23h.25a2.82,2.82,0,0,1,2.28.89,3.26,3.26,0,0,1,.46,2.7,3.05,3.05,0,0,1-1.54,2.14,7.87,7.87,0,0,1-3.09.46c-.33,1.05-.63,2.23-.84,3.22l.09-.1a2.59,2.59,0,0,1,1.82-.75,3.67,3.67,0,0,1,3.34,2.78,4.9,4.9,0,0,1-1,4.21A6.81,6.81,0,0,1,487.6,294.65Z" transform="translate(-346.81 -269.11)"/><path class="cls-2" d="M486.35,272.55c1.8,0,3.53,1.09,3.84,2.22s-.3,2.16-.54,3.12c.42,0,1-.14,1.62-.14a1.87,1.87,0,0,1,1.5.5,2.52,2.52,0,0,1-.73,3.33,8.19,8.19,0,0,1-3,.36h-.41c-.33,1-1.86,6.06-1.21,6.84a.17.17,0,0,0,.12.06c.46,0,1.5-1.79,1.78-2.07a1.57,1.57,0,0,1,1.11-.46,2.7,2.7,0,0,1,2.37,2c.69,3.12-2.18,5.35-5.23,5.35a6,6,0,0,1-5.69-4.12c-.9-2.37-.39-5.34-.06-7.8a15.35,15.35,0,0,1-1.57.1,2.7,2.7,0,0,1-1.28-.22c-1.19-.71-.94-3.95,1.74-3.95a4.81,4.81,0,0,1,1.26.2c.33-4,2.38-5.31,4.35-5.31m0-2c-2.39,0-5,1.39-6,5.13a4.27,4.27,0,0,0-3.85,3.16,3.93,3.93,0,0,0,1.48,4.49,3.73,3.73,0,0,0,1.59.47,13.84,13.84,0,0,0,.48,6.44,7.94,7.94,0,0,0,7.56,5.41,7.71,7.71,0,0,0,6-2.73,5.91,5.91,0,0,0,1.16-5.05,4.68,4.68,0,0,0-4.32-3.56,3.25,3.25,0,0,0-.44,0l.12-.42a7.08,7.08,0,0,0,2.77-.53,4.06,4.06,0,0,0,2.08-2.83,4.22,4.22,0,0,0-.66-3.55,3.19,3.19,0,0,0-2.1-1.18,4.49,4.49,0,0,0-.11-1.58c-.55-2.07-3.09-3.7-5.77-3.7Z" transform="translate(-346.81 -269.11)"/><path class="cls-1" d="M396.9,326.65a7,7,0,0,1-6.63-4.76c-.84-2.22-.6-4.75-.29-7.07h-.41a3.43,3.43,0,0,1-1.79-.36,3,3,0,0,1-1-3.36,3.28,3.28,0,0,1,3.29-2.45l.39,0c.83-4.74,4.16-5.13,5.22-5.13,2.21,0,4.36,1.33,4.8,3a4.31,4.31,0,0,1-.12,2.23h.24a2.82,2.82,0,0,1,2.28.89,3.22,3.22,0,0,1,.46,2.7,3,3,0,0,1-1.53,2.14,7.92,7.92,0,0,1-3.1.46c-.32,1.05-.63,2.23-.84,3.22l.1-.09a2.53,2.53,0,0,1,1.82-.76,3.67,3.67,0,0,1,3.34,2.78,4.9,4.9,0,0,1-1,4.2A6.77,6.77,0,0,1,396.9,326.65Z" transform="translate(-346.81 -269.11)"/><path class="cls-2" d="M395.65,304.55c1.8,0,3.53,1.09,3.83,2.22s-.3,2.16-.54,3.12c.43,0,1-.14,1.63-.14a1.84,1.84,0,0,1,1.49.5,2.51,2.51,0,0,1-.72,3.33,8.22,8.22,0,0,1-3,.36H398c-.33,1-1.86,6.06-1.2,6.84a.14.14,0,0,0,.12.06c.45,0,1.5-1.79,1.77-2.07a1.59,1.59,0,0,1,1.12-.46,2.69,2.69,0,0,1,2.36,2c.69,3.12-2.17,5.35-5.22,5.35a6,6,0,0,1-5.7-4.12c-.9-2.37-.39-5.34-.06-7.8a15.15,15.15,0,0,1-1.57.1,2.73,2.73,0,0,1-1.28-.22c-1.19-.71-.93-3.95,1.75-3.95a4.68,4.68,0,0,1,1.25.2c.33-4,2.38-5.31,4.36-5.31m0-2c-2.4,0-5,1.39-6,5.13a4.26,4.26,0,0,0-3.84,3.16,3.93,3.93,0,0,0,1.47,4.49,3.78,3.78,0,0,0,1.6.47,13.83,13.83,0,0,0,.47,6.44,8,8,0,0,0,7.57,5.41,7.71,7.71,0,0,0,6-2.73,5.84,5.84,0,0,0,1.16-5.05,4.66,4.66,0,0,0-4.31-3.56,3.15,3.15,0,0,0-.44,0c0-.14.08-.28.11-.42a7.13,7.13,0,0,0,2.78-.53,4.07,4.07,0,0,0,2.08-2.82,4.27,4.27,0,0,0-.66-3.56,3.19,3.19,0,0,0-2.1-1.18,4.28,4.28,0,0,0-.12-1.58c-.55-2.07-3.08-3.7-5.76-3.7Z" transform="translate(-346.81 -269.11)"/><path class="cls-1" d="M408.08,326a4.61,4.61,0,0,1-3.6-1.76,8.68,8.68,0,0,1-1.46-3c-.59-2.11-1-8.5,1.49-10.43a4.5,4.5,0,0,1,2.68-.71H408c.67,0,2.45,0,3.34,1.41s.73,10.73,0,12.35a3.28,3.28,0,0,1-1.88,1.88A4.07,4.07,0,0,1,408.08,326Zm-1.63-16a4,4,0,0,1-3.33-2,3.72,3.72,0,0,1-.17-3.7c1-1.91,3.75-2.06,4.57-2.06a7.35,7.35,0,0,1,1.38.13,3.83,3.83,0,0,1,3,3.25,3.36,3.36,0,0,1-1.85,3.52,6.09,6.09,0,0,1-1.74.51,6.83,6.83,0,0,0-.81.18A3.68,3.68,0,0,1,406.45,310Z" transform="translate(-346.81 -269.11)"/><path class="cls-2" d="M407.52,303.21a5.89,5.89,0,0,1,1.17.11c2.34.48,3.15,3.75.9,4.89a13.47,13.47,0,0,1-2.4.63,2.37,2.37,0,0,1-.74.11,3,3,0,0,1-2.62-4.22c.58-1.1,2.28-1.51,3.69-1.52m.48,7.87a2.75,2.75,0,0,1,2.49.94c.66,1.08.57,10,0,11.43a2.33,2.33,0,0,1-1.29,1.32,3.1,3.1,0,0,1-1.09.2,3.61,3.61,0,0,1-2.81-1.37A8,8,0,0,1,404,321c-.6-2.13-.78-7.89,1.14-9.36a3.75,3.75,0,0,1,2.13-.51H408m-.48-9.87h0c-2.58,0-4.62,1-5.46,2.6a4.72,4.72,0,0,0,.2,4.68,5.16,5.16,0,0,0,1.53,1.62c-3,2.54-2.24,9.59-1.73,11.39a9.72,9.72,0,0,0,1.63,3.32,5.61,5.61,0,0,0,4.39,2.15,5,5,0,0,0,1.8-.33,4.29,4.29,0,0,0,2.43-2.41c.74-1.76,1-11.44-.11-13.25a3.71,3.71,0,0,0-1.27-1.23,4.3,4.3,0,0,0,1.95-4.29,4.83,4.83,0,0,0-3.79-4.1,8.45,8.45,0,0,0-1.57-.15Z" transform="translate(-346.81 -269.11)"/><path class="cls-1" d="M416.27,326.54a6.17,6.17,0,0,1-1.36-.16,4,4,0,0,1-3.19-3.24,10.78,10.78,0,0,1,0-2.41l0-.32a48.27,48.27,0,0,0-.14-9.26V311a3.17,3.17,0,0,1,.09-1.41,3.82,3.82,0,0,1,3.8-2.33,4.22,4.22,0,0,1,3.8,2c.07.12.12.23.18.35a6.61,6.61,0,0,1,3.8-1.27,6.77,6.77,0,0,1,4.87,2.25,6.44,6.44,0,0,1,4.07-2.52,5.24,5.24,0,0,1,.7-.05,6.61,6.61,0,0,1,4.91,2.39c1.58,2,2.32,7.26,1.93,10.68-.24,2-.84,3.44-1.78,4.18a5,5,0,0,1-4,.88c-3.5-.71-3.08-4.12-2.74-6.86a11.27,11.27,0,0,0,.06-4,.93.93,0,0,0-.26-.51,1.36,1.36,0,0,0-.39.31c-.69.89-.58,2.48-.47,4,.13,1.85.26,3.76-.92,5a4.34,4.34,0,0,1-3.35,1.18l-.74,0c-3.8-.28-3.53-4.42-3.35-7.16a11.49,11.49,0,0,0,0-2.84,2,2,0,0,0-.54-1s-.09.13-.2.36c-.66,1.29-.52,3.07-.39,4.8.18,2.38.37,4.84-1.54,6.21A4.82,4.82,0,0,1,416.27,326.54Z" transform="translate(-346.81 -269.11)"/><path class="cls-2" d="M415.48,308.28a3.27,3.27,0,0,1,2.93,1.52,7.1,7.1,0,0,1,.54,1.59,5.65,5.65,0,0,1,9.21.84c1-1.44,2.31-2.88,4.17-3.12a5.46,5.46,0,0,1,.57,0,5.64,5.64,0,0,1,4.14,2c1.83,2.28,2.79,11.49.3,13.44a3.83,3.83,0,0,1-2.35.77,4.26,4.26,0,0,1-.8-.08c-4.11-.84-.93-6.72-1.92-10.2a1.66,1.66,0,0,0-.87-1.17,1,1,0,0,0-.3,0,1.71,1.71,0,0,0-1.23.67c-2.35,3,2.05,9.84-3.95,9.84l-.67,0c-4.05-.3-1.83-6.69-2.46-9.24-.17-.64-.66-1.74-1.47-1.74h-.06a1.43,1.43,0,0,0-1.08.9c-1.71,3.36,1.05,8.73-1.62,10.65a3.86,3.86,0,0,1-2.29.68,4.66,4.66,0,0,1-1.13-.14,3,3,0,0,1-2.43-2.4,11.8,11.8,0,0,1,0-2.52,49.7,49.7,0,0,0-.15-9.45,2.62,2.62,0,0,1,0-1.08,2.87,2.87,0,0,1,2.86-1.67m0-2a4.82,4.82,0,0,0-4.75,3,4.11,4.11,0,0,0-.14,1.81v.1a48.4,48.4,0,0,1,.15,9.11l0,.32a12.28,12.28,0,0,0,0,2.64,5,5,0,0,0,3.93,4,6.76,6.76,0,0,0,1.61.2,5.85,5.85,0,0,0,3.48-1.07,4.54,4.54,0,0,0,1.72-2.45,4.08,4.08,0,0,0,3.63,2.27l.82,0a5.35,5.35,0,0,0,4.08-1.49,6,6,0,0,0,.39-.49,4.15,4.15,0,0,0,3.4,2.84,6.11,6.11,0,0,0,1.2.12,5.79,5.79,0,0,0,3.59-1.2c1.16-.9,1.88-2.54,2.15-4.85.42-3.62-.36-9.2-2.13-11.41a7.69,7.69,0,0,0-5.7-2.77,6,6,0,0,0-.85.06,6.85,6.85,0,0,0-4,2.09,7.47,7.47,0,0,0-4.81-1.83,7.27,7.27,0,0,0-3.46.89,5.34,5.34,0,0,0-4.32-2Z" transform="translate(-346.81 -269.11)"/><path class="cls-1" d="M448.34,326.27c-4.2,0-9-2.71-9.53-7.09a10.75,10.75,0,0,1,3.34-8.63,10.59,10.59,0,0,1,6.47-2.42,5.51,5.51,0,0,1,4.14,1.62,6.74,6.74,0,0,1,1.72,4.21,5.3,5.3,0,0,1-.66,2.71,6,6,0,0,1-1.78,2,2.54,2.54,0,0,1,.53.2,3.51,3.51,0,0,1,1.49,4.14C453.32,325,451.18,326.27,448.34,326.27Z" transform="translate(-346.81 -269.11)"/><path class="cls-2" d="M448.62,309.13a4.59,4.59,0,0,1,3.42,1.3,5.81,5.81,0,0,1,1.44,3.57,4.31,4.31,0,0,1-.54,2.19,5.26,5.26,0,0,1-4.87,2.61,10.33,10.33,0,0,1-3.11-.51c0,1.29,1,1.61,2.2,1.61s2.85-.34,3.95-.34a2.29,2.29,0,0,1,1,.17,2.52,2.52,0,0,1,1,2.91c-.65,1.81-2.58,2.63-4.78,2.63-3.68,0-8.11-2.31-8.54-6.2a9.79,9.79,0,0,1,3-7.77,9.65,9.65,0,0,1,5.82-2.17m-1.15,6.43a2.55,2.55,0,0,0,2.17-1c.26-.67-.57-1-1.48-1-1.09,0-2.29.48-1.88,1.42a1.18,1.18,0,0,0,1.19.6m1.15-8.43a11.58,11.58,0,0,0-7.13,2.66,11.71,11.71,0,0,0-3.68,9.51c.56,5,5.79,8,10.53,8,3.28,0,5.77-1.47,6.66-3.95a4.56,4.56,0,0,0-1.25-4.86,7.41,7.41,0,0,0,.93-1.27,6.51,6.51,0,0,0,.8-3.27,7.86,7.86,0,0,0-2-4.88,6.54,6.54,0,0,0-4.86-1.91Z" transform="translate(-346.81 -269.11)"/><path class="cls-1" d="M470.41,294.12a9.92,9.92,0,0,1-4.47-.79,3.41,3.41,0,0,1-1.59-3.43,4.09,4.09,0,0,1,1.72-3.28,3.9,3.9,0,0,1,2.14-.49h.06a6.67,6.67,0,0,1-3.46-6.76c.35-1.86,2.32-3.22,3.9-3.82a11.1,11.1,0,0,1,3.59-.53c3.51,0,5.86,1.21,6.27,3.25a4.11,4.11,0,0,1-1.09,3.66,3.86,3.86,0,0,1-2.78.82h-.38l.27.14.39.22c.78.47,2.72,1.77,3.31,3.42a5.56,5.56,0,0,1-.17,4.41,5.42,5.42,0,0,1-3.34,2.7A17.63,17.63,0,0,1,470.41,294.12Z" transform="translate(-346.81 -269.11)"/><path class="cls-2" d="M472.3,276c2.34,0,4.92.62,5.28,2.44a3.12,3.12,0,0,1-.77,2.73,3,3,0,0,1-2.11.56h-.81a1.82,1.82,0,0,0-1.28.29c-.66.75,1.41,1.65,1.83,1.92a7,7,0,0,1,2.91,2.91,4.28,4.28,0,0,1-2.86,5.82,16.4,16.4,0,0,1-4.08.44,8.9,8.9,0,0,1-4-.65,2.5,2.5,0,0,1-1.11-2.52,3.18,3.18,0,0,1,1.26-2.49,3,3,0,0,1,1.59-.33c.9,0,1.87.16,2.5.16.33,0,.57,0,.65-.19.36-.69-2.1-1.59-2.49-1.8a5.67,5.67,0,0,1-3.06-5.76c.27-1.44,2-2.58,3.27-3.06a10.26,10.26,0,0,1,3.23-.46m0-2a12,12,0,0,0-3.93.59c-1.93.73-4.12,2.31-4.54,4.57a7.43,7.43,0,0,0,2.07,6.39,3.9,3.9,0,0,0-.35.19,5.11,5.11,0,0,0-2.2,4.06,4.4,4.4,0,0,0,2.1,4.38,10.1,10.1,0,0,0,5,.92,18.36,18.36,0,0,0,4.65-.52,6.39,6.39,0,0,0,3.95-3.21,6.49,6.49,0,0,0,.21-5.21,6.8,6.8,0,0,0-2.15-2.81,3.46,3.46,0,0,0,1.11-.72,5.15,5.15,0,0,0,1.37-4.58c-.52-2.54-3.22-4.05-7.25-4.05Z" transform="translate(-346.81 -269.11)"/><path class="cls-1" d="M462.48,294a3.71,3.71,0,0,1-2.41-.86,13.2,13.2,0,0,1-1.74-2.2,13.57,13.57,0,0,1-3.94,2.47,6.23,6.23,0,0,1-2.16.38,5.94,5.94,0,0,1-3.88-1.43c-2.77-2.36-2.81-6.91-1.68-10.13,1.2-3.43,3.65-5.54,6.55-5.64h.13a6.09,6.09,0,0,1,3.26,1,4,4,0,0,1,3.25-1.53,5.3,5.3,0,0,1,1.73.3c3,1.07,2.78,4.68,2.61,7.32a17.18,17.18,0,0,0-.07,1.81,12.22,12.22,0,0,0,.75,3.3,9.3,9.3,0,0,1,.56,2.33,2.59,2.59,0,0,1-.69,2A3.1,3.1,0,0,1,462.48,294Zm-7.93-11.79c-.58.33-1.46,2.92-1,4.64.26,1,.54,1.15.55,1.15a3,3,0,0,0,1-1.46,4.4,4.4,0,0,0-.27-4.1A1.15,1.15,0,0,0,454.55,282.18Z" transform="translate(-346.81 -269.11)"/><path class="cls-2" d="M459.86,277.05a4.49,4.49,0,0,1,1.41.24c3,1,1.77,5.79,1.86,8.22s1.26,4.32,1.32,5.64a1.76,1.76,0,0,1-2,1.82,2.69,2.69,0,0,1-1.75-.62,11,11,0,0,1-2.1-3,15,15,0,0,1-4.59,3.12,5.24,5.24,0,0,1-1.81.32,5,5,0,0,1-3.23-1.19c-4-3.42-1.8-13.8,4.26-14h.09a5.52,5.52,0,0,1,3.54,1.47,3.14,3.14,0,0,1,3-2M454,289c1.65,0,3.52-4.6,1.54-7.17a1.36,1.36,0,0,0-1-.63c-1.44,0-2.56,3.74-2,5.91.35,1.35.89,1.89,1.46,1.89m5.83-13.91h0a5.08,5.08,0,0,0-3.43,1.28,6.85,6.85,0,0,0-3.08-.77h-.14c-3.35.12-6.14,2.48-7.48,6.31-1.24,3.53-1.15,8.55,2,11.22a7,7,0,0,0,4.54,1.67,7.14,7.14,0,0,0,2.49-.44,12.69,12.69,0,0,0,3.4-2,11.09,11.09,0,0,0,1.27,1.48,4.72,4.72,0,0,0,3.09,1.13,4.08,4.08,0,0,0,3-1.2,3.65,3.65,0,0,0,1-2.71,10.06,10.06,0,0,0-.61-2.6,11.13,11.13,0,0,1-.71-3c0-.43,0-1.05.07-1.7.18-2.62.48-7-3.26-8.32a6.36,6.36,0,0,0-2.07-.36Z" transform="translate(-346.81 -269.11)"/><path class="cls-1" d="M437.84,296.15a6.75,6.75,0,0,1-1.63-.19,5,5,0,0,1-2.09-1c-1.71-1.48-1.89-5.17-1.76-9.06a3.88,3.88,0,0,1-2-.76,2.82,2.82,0,0,1-.94-1.54,3.52,3.52,0,0,1,.47-3,4.83,4.83,0,0,1,3.22-1.75,6.19,6.19,0,0,1,.5-1.92,8.89,8.89,0,0,1,2.13-4.15,7.28,7.28,0,0,1,4-2.15,15.78,15.78,0,0,1,2.73-.26c2.39,0,4.05.69,4.93,2a4.87,4.87,0,0,1-.06,5.12,3.28,3.28,0,0,1-2.77,1.15q-.39,0-.78,0l-.65,0c-.59,0-.75.11-.82.18a2.75,2.75,0,0,0-.23.33h.08c2.06,0,3.15.16,3.78.56a2,2,0,0,1,.75.82,3.41,3.41,0,0,1-.67,3.79c-.9.84-2.39,1-3.93,1l0,.16a33.08,33.08,0,0,0,.58,3.38l.15.62a13.42,13.42,0,0,1,.44,2.15,3.89,3.89,0,0,1-.43,2.32C441.82,295.58,439.6,296.15,437.84,296.15Z" transform="translate(-346.81 -269.11)"/><path class="cls-2" d="M442.39,271.35c1.62,0,3.28.35,4.09,1.59a3.9,3.9,0,0,1,0,4,2.3,2.3,0,0,1-2,.77c-.48,0-1-.05-1.43-.05a2,2,0,0,0-1.56.51,4,4,0,0,0-.84,2h1.43a8.46,8.46,0,0,1,3.25.4,1,1,0,0,1,.39.42,2.45,2.45,0,0,1-.45,2.61c-.78.72-2.45.79-3.7.79h-.71c.24,1.59.39,3.18.78,4.77a19.69,19.69,0,0,1,.57,2.64,2.82,2.82,0,0,1-.3,1.71c-.71,1.18-2.53,1.69-4.08,1.69a5.23,5.23,0,0,1-1.38-.16,4.12,4.12,0,0,1-1.68-.78c-1.77-1.53-1.47-7-1.38-9.24a4,4,0,0,1-2.43-.6,1.78,1.78,0,0,1-.6-1c-.63-2.52,1.47-3.48,3.57-3.66a10.44,10.44,0,0,1,.57-2.4,8.14,8.14,0,0,1,1.92-3.87,6.32,6.32,0,0,1,3.42-1.86,14.52,14.52,0,0,1,2.54-.24m0-2a16.42,16.42,0,0,0-2.9.28,8.25,8.25,0,0,0-4.52,2.46,9.91,9.91,0,0,0-2.34,4.47,5.69,5.69,0,0,0-.41,1.43,5.39,5.39,0,0,0-3.18,2,4.55,4.55,0,0,0-.61,3.87,3.73,3.73,0,0,0,1.29,2.07,4.27,4.27,0,0,0,1.61.8c-.08,3.63.18,7.29,2.14,9a6,6,0,0,0,2.5,1.2,7.16,7.16,0,0,0,1.87.22c2,0,4.62-.7,5.79-2.66a4.74,4.74,0,0,0,.57-2.94,14.61,14.61,0,0,0-.46-2.3l-.15-.61a22.64,22.64,0,0,1-.43-2.35,5.6,5.6,0,0,0,3.48-1.27,4.44,4.44,0,0,0,.86-5,2.9,2.9,0,0,0-.67-.87,3.64,3.64,0,0,0,1.23-1,5.87,5.87,0,0,0,.09-6.27c-.73-1.15-2.34-2.51-5.76-2.51Z" transform="translate(-346.81 -269.11)"/><path class="cls-1" d="M419.67,294.09c-2.23,0-4-1.07-4.53-2.8a14,14,0,0,1,0-4.88c.06-.63.12-1.21.14-1.63.11-2.49.06-4.92,0-7.48,0-.42-.06-.83-.11-1.25a7,7,0,0,1,.12-3.39,4.36,4.36,0,0,1,4.26-2.55,6.29,6.29,0,0,1,3.47,1c1.91,1.28,2,4.73,1.77,7.58,1.54-1.52,3-2.67,4.27-2.67a1.83,1.83,0,0,1,1.64,1,2.69,2.69,0,0,1,.28,2c-.22.72-1.59,2.11-4.1,4.13,1.57,1.76,5,5.77,5.23,6.77a2.81,2.81,0,0,1-.14,1.49,3.85,3.85,0,0,1-3.23,2.25,2.07,2.07,0,0,1-.5-.05c-.83-.18-1.85-1.24-3.84-3.67a4.06,4.06,0,0,1-3.3,4A5.76,5.76,0,0,1,419.67,294.09Z" transform="translate(-346.81 -269.11)"/><path class="cls-2" d="M419.57,271.11a5.34,5.34,0,0,1,2.91.84c2.18,1.47,1.35,7.38.9,9.66.83-.75,4-4.57,5.7-4.57a.86.86,0,0,1,.78.46,1.67,1.67,0,0,1,.18,1.26c-.25.81-3.75,3.63-4.59,4.29.84.84,5.54,6.33,5.7,7.08a1.86,1.86,0,0,1-.09.93,2.88,2.88,0,0,1-2.3,1.62,1.27,1.27,0,0,1-.28,0c-1-.21-4.05-4.38-5-5.4,0,2.4.36,5-2.58,5.7a4.91,4.91,0,0,1-1.22.14,3.53,3.53,0,0,1-3.58-2.12c-.42-1.26.15-4.65.21-6.15.12-2.55.06-5.07,0-7.62,0-1.23-.51-3.06-.06-4.17a3.37,3.37,0,0,1,3.33-1.92m0-2a5.31,5.31,0,0,0-5.18,3.16,8,8,0,0,0-.2,3.9c.05.41.1.8.11,1.08v.07c.06,2.55.11,4.95,0,7.41,0,.39-.08,1-.14,1.58-.24,2.34-.37,4.09,0,5.3.7,2.14,2.8,3.48,5.48,3.48a7.15,7.15,0,0,0,1.68-.19,4.87,4.87,0,0,0,3.56-2.8c1.44,1.65,2.26,2.32,3.15,2.51a3.2,3.2,0,0,0,.7.07,4.84,4.84,0,0,0,4.14-2.85,3.68,3.68,0,0,0,.21-2.09c-.24-1.16-3-4.44-4.77-6.45,3.24-2.7,3.48-3.5,3.61-4a3.68,3.68,0,0,0-.37-2.84,2.82,2.82,0,0,0-2.5-1.45,5.3,5.3,0,0,0-3.14,1.33c0-2.59-.63-4.92-2.35-6.08a7.3,7.3,0,0,0-4-1.18Z" transform="translate(-346.81 -269.11)"/><path class="cls-1" d="M412.65,294a3.71,3.71,0,0,1-2.41-.86,13.2,13.2,0,0,1-1.74-2.2,13.57,13.57,0,0,1-3.94,2.47,6.23,6.23,0,0,1-2.16.38,5.94,5.94,0,0,1-3.88-1.43c-2.77-2.36-2.81-6.91-1.68-10.13,1.2-3.43,3.65-5.54,6.55-5.64h.13a6.09,6.09,0,0,1,3.26,1,4,4,0,0,1,3.25-1.53,5.3,5.3,0,0,1,1.73.3c3,1.07,2.78,4.68,2.61,7.32a17.18,17.18,0,0,0-.07,1.81,12.22,12.22,0,0,0,.75,3.3,9.3,9.3,0,0,1,.56,2.33,2.59,2.59,0,0,1-.69,2A3.1,3.1,0,0,1,412.65,294Zm-7.93-11.79c-.58.33-1.46,2.92-1,4.64.26,1,.54,1.15.55,1.15a3,3,0,0,0,1-1.46,4.4,4.4,0,0,0-.27-4.1A1.15,1.15,0,0,0,404.72,282.18Z" transform="translate(-346.81 -269.11)"/><path class="cls-2" d="M410,277.05a4.49,4.49,0,0,1,1.41.24c3,1,1.77,5.79,1.86,8.22s1.26,4.32,1.32,5.64a1.76,1.76,0,0,1-2,1.82,2.69,2.69,0,0,1-1.75-.62,11,11,0,0,1-2.1-3,15,15,0,0,1-4.59,3.12,5.24,5.24,0,0,1-1.81.32,5,5,0,0,1-3.23-1.19c-4-3.42-1.8-13.8,4.26-14h.09a5.52,5.52,0,0,1,3.54,1.47,3.14,3.14,0,0,1,3-2M404.2,289c1.65,0,3.52-4.6,1.54-7.17a1.36,1.36,0,0,0-1-.63c-1.44,0-2.56,3.74-2,5.91.35,1.35.89,1.89,1.46,1.89M410,275.05h0a5.08,5.08,0,0,0-3.43,1.28,6.85,6.85,0,0,0-3.08-.77h-.14c-3.35.12-6.14,2.48-7.48,6.31-1.24,3.53-1.15,8.55,2,11.22a7,7,0,0,0,4.54,1.67,7.14,7.14,0,0,0,2.49-.44,12.69,12.69,0,0,0,3.4-2,11.09,11.09,0,0,0,1.27,1.48,4.72,4.72,0,0,0,3.09,1.13,4.08,4.08,0,0,0,3-1.2,3.65,3.65,0,0,0,1-2.71,10.06,10.06,0,0,0-.61-2.6,11.13,11.13,0,0,1-.71-3c0-.43,0-1.05.07-1.7.18-2.62.48-7-3.26-8.32a6.36,6.36,0,0,0-2.07-.36Z" transform="translate(-346.81 -269.11)"/><path class="cls-1" d="M391.06,294.27c-4.21,0-9.05-2.71-9.54-7.09a10.78,10.78,0,0,1,3.34-8.63,10.6,10.6,0,0,1,6.48-2.42,5.54,5.54,0,0,1,4.14,1.61A6.79,6.79,0,0,1,397.2,282a5.33,5.33,0,0,1-.67,2.72,6,6,0,0,1-1.77,2,2.45,2.45,0,0,1,.52.2,3.5,3.5,0,0,1,1.5,4.14C396,293,393.9,294.27,391.06,294.27Z" transform="translate(-346.81 -269.11)"/><path class="cls-2" d="M391.34,277.13a4.59,4.59,0,0,1,3.42,1.3A5.81,5.81,0,0,1,396.2,282a4.31,4.31,0,0,1-.54,2.19,5.27,5.27,0,0,1-4.88,2.61,10.32,10.32,0,0,1-3.1-.51c0,1.29.95,1.61,2.2,1.61s2.85-.34,3.95-.34a2.32,2.32,0,0,1,1,.17,2.52,2.52,0,0,1,1,2.91c-.65,1.81-2.58,2.63-4.78,2.63-3.68,0-8.11-2.31-8.54-6.2a9.79,9.79,0,0,1,3-7.77,9.65,9.65,0,0,1,5.82-2.17m-1.16,6.43a2.56,2.56,0,0,0,2.18-1c.26-.67-.57-1-1.48-1-1.09,0-2.29.48-1.88,1.42a1.18,1.18,0,0,0,1.18.6m1.16-8.43a11.54,11.54,0,0,0-7.13,2.66,11.71,11.71,0,0,0-3.68,9.51c.55,5,5.79,8,10.53,8,3.28,0,5.77-1.47,6.66-3.95a4.56,4.56,0,0,0-1.25-4.86,6.86,6.86,0,0,0,.92-1.27,6.29,6.29,0,0,0,.8-3.27,7.8,7.8,0,0,0-2-4.88,6.51,6.51,0,0,0-4.85-1.91Z" transform="translate(-346.81 -269.11)"/><path class="cls-1" d="M370.19,294.24a6.7,6.7,0,0,1-1.74-.23,4,4,0,0,1-2-1.21c-1-1.18-.84-4.1-.52-8.41.1-1.35.19-2.64.17-3.38a4.16,4.16,0,0,1,.17-4,4.77,4.77,0,0,1,4-2.05,3.71,3.71,0,0,1,2.44.83A4.69,4.69,0,0,1,374,278a8.11,8.11,0,0,1,4.37-1.33c2.74,0,4.52,1.65,4.52,4.21a4,4,0,0,1-2.07,3.47,2.64,2.64,0,0,1-1.27.29,7,7,0,0,1-1.87-.34,6,6,0,0,0-1.41-.28c-.28,0-.68,0-1,.94a6.93,6.93,0,0,0-.16,2.95c.12,1.59.26,3.39-1,4.77A5.18,5.18,0,0,1,370.19,294.24Z" transform="translate(-346.81 -269.11)"/><path class="cls-2" d="M370.24,276a2.7,2.7,0,0,1,1.78.58c.93.81,1.14,2.13,1.44,3.27a6.58,6.58,0,0,1,4.91-2.16c1.88,0,3.52.91,3.52,3.21a3,3,0,0,1-1.53,2.58,1.72,1.72,0,0,1-.81.18c-1,0-2.22-.62-3.28-.62-.79,0-1.5.35-2,1.58-.93,2.37.75,5.52-1,7.41a4.21,4.21,0,0,1-3.15,1.22,5.38,5.38,0,0,1-1.47-.2,3.07,3.07,0,0,1-1.53-.9c-1.17-1.41,0-9-.12-11.37-1.4-3,1.08-4.78,3.17-4.78m0-2a5.79,5.79,0,0,0-4.83,2.51,5.08,5.08,0,0,0-.33,4.71c0,.72-.08,1.93-.17,3.11-.38,5.13-.43,7.7.74,9.1a5.13,5.13,0,0,0,2.56,1.56,7.46,7.46,0,0,0,2,.26,6.16,6.16,0,0,0,4.63-1.88c1.54-1.7,1.38-3.82,1.25-5.52a6.26,6.26,0,0,1,.09-2.5,2.29,2.29,0,0,1,.14-.3,5.06,5.06,0,0,1,1.11.24,8.32,8.32,0,0,0,2.14.37,3.63,3.63,0,0,0,1.74-.41,4.93,4.93,0,0,0,2.6-4.35c0-3.12-2.22-5.21-5.52-5.21a9.09,9.09,0,0,0-3.88.9,4.71,4.71,0,0,0-1.16-1.51,4.64,4.64,0,0,0-3.09-1.08Z" transform="translate(-346.81 -269.11)"/><path class="cls-1" d="M352.73,294.29a4.63,4.63,0,0,1-3.93-1.78,5.09,5.09,0,0,1-.52-3.14,64.15,64.15,0,0,0-.32-14.48l0-.24a4.54,4.54,0,0,1,.05-2.16c.43-1.31,1.9-2.1,3.93-2.1,1.44,0,3.43.45,4.29,1.72s1,3.46,1,5.65a4.68,4.68,0,0,1,2.39-.62,6,6,0,0,1,1.24.14c4.41.93,6,5.09,5.61,8.81-.37,3.55-2.65,7.37-6.79,7.37a7.73,7.73,0,0,1-3.21-.75A4.62,4.62,0,0,1,352.73,294.29Zm6.68-12.05a1.69,1.69,0,0,0-.63.44A5.54,5.54,0,0,0,357.7,287a1.83,1.83,0,0,0,.81,1.39.49.49,0,0,0,.19.05c.43,0,1.19-1.19,1.4-3.06C360.29,283.67,359.9,282.39,359.41,282.24Z" transform="translate(-346.81 -269.11)"/><path class="cls-2" d="M351.9,271.39c1.42,0,2.92.47,3.47,1.28,1.05,1.56.87,5.55.72,7.44a4.31,4.31,0,0,1,3.5-2,5.48,5.48,0,0,1,1,.11c7.47,1.58,5.74,14.21-1,14.21a7.23,7.23,0,0,1-3.59-1.07,3.38,3.38,0,0,1-3.34,1.9,3.68,3.68,0,0,1-3.08-1.33,4.27,4.27,0,0,1-.36-2.52,65.15,65.15,0,0,0-.33-14.7,4.16,4.16,0,0,1,0-1.92c.32-1,1.62-1.43,3-1.43m6.8,18c2.54,0,3.52-7.59.9-8.18h-.18a2.23,2.23,0,0,0-1.35.73c-1.68,1.65-2.16,6.33,0,7.32a1.35,1.35,0,0,0,.6.14m-6.8-20c-2.49,0-4.31,1.05-4.89,2.82a5.35,5.35,0,0,0-.08,2.59l0,.23a63.37,63.37,0,0,1,.31,14.26,6.24,6.24,0,0,0,.66,3.73,5.63,5.63,0,0,0,4.78,2.27,5.92,5.92,0,0,0,4-1.39,8.46,8.46,0,0,0,2.95.56c4.08,0,7.28-3.4,7.79-8.27s-2.12-9-6.41-9.89a6.55,6.55,0,0,0-1.44-.16,5.45,5.45,0,0,0-1.41.17,9.46,9.46,0,0,0-1.15-4.75c-1.09-1.6-3.37-2.17-5.13-2.17ZM358.71,287a2.9,2.9,0,0,1-.08-.59,5.27,5.27,0,0,1,.5-2.46,7.41,7.41,0,0,1-.42,3.05Z" transform="translate(-346.81 -269.11)"/></svg>